<svg viewBox="0 0 20 20" xmlns="http://www.w3.org/2000/svg" fill="#fff" stroke="#fff"><g id="SVGRepo_bgCarrier" stroke-width="0"></g><g id="SVGRepo_tracerCarrier" stroke-linecap="round" stroke-linejoin="round"></g><g id="SVGRepo_iconCarrier"> <g id="jet-plane-right" transform="translate(-2 -2)"> <path id="secondary" fill="#06" d="M9.37,17.46a1,1,0,0,0,1.42,0L18.7,9.55A7.86,7.86,0,0,0,21,4a1,1,0,0,0-1-1,7.86,7.86,0,0,0-5.55,2.3L6.54,13.21a1,1,0,0,0,0,1.42Z"></path> <path id="primary" d="M11.68,16.93,15.75,21l1.79-1.79a1,1,0,0,0,.29-.8l-.65-7.11" fill="none" stroke="#" stroke-linecap="round" stroke-linejoin="round" stroke-width="2"></path> <path id="primary-2" data-name="primary" d="M12.75,6.82,5.59,6.17a1,1,0,0,0-.8.29L3,8.25l4.09,4.09" fill="none" stroke="#" stroke-linecap="round" stroke-linejoin="round" stroke-width="2"></path> <path id="primary-3" data-name="primary" d="M17.87,16l1.42-1.41M9.37,4.71,8,6.13M9.37,17.46a1,1,0,0,0,1.42,0L18.7,9.55A7.86,7.86,0,0,0,21,4a1,1,0,0,0-1-1,7.86,7.86,0,0,0-5.55,2.3L6.54,13.21a1,1,0,0,0,0,1.42Z" fill="none" stroke="#" stroke-linecap="round" stroke-linejoin="round" stroke-width="2"></path> </g> </g></svg>