<svg width="20" height="20" viewBox="0 0 20 20" fill="none" xmlns="http://www.w3.org/2000/svg">
<path fill-rule="evenodd" clip-rule="evenodd" d="M15.8336 17.5C17.6745 17.5 19.1669 16.0076 19.1669 14.1667V6.68557C19.1672 6.67283 19.1672 6.66005 19.1669 6.64725V5.83333C19.1669 3.99238 17.6745 2.5 15.8336 2.5H4.1669C2.32595 2.5 0.833565 3.99238 0.833565 5.83333V6.64726C0.833269 6.66005 0.83327 6.67282 0.833565 6.68556V14.1667C0.833565 16.0076 2.32595 17.5 4.1669 17.5H15.8336ZM2.50023 14.1667C2.50023 15.0871 3.24642 15.8333 4.1669 15.8333H15.8336C16.754 15.8333 17.5002 15.0871 17.5002 14.1667V7.89753L11.2382 10.4023C10.4435 10.7202 9.55697 10.7202 8.76226 10.4023L2.50023 7.89753V14.1667ZM10.6192 8.85488L17.5002 6.10247V5.83333C17.5002 4.91286 16.754 4.16667 15.8336 4.16667H4.1669C3.24642 4.16667 2.50023 4.91286 2.50023 5.83333V6.10247L9.38125 8.85488C9.7786 9.01382 10.2219 9.01382 10.6192 8.85488Z" fill="#667185"/>
</svg>
